<?xml version="1.0" encoding="UTF-8"?>
<svg width="1056" height="816" viewBox="0 0 1056 816"
     xmlns="http://www.w3.org/2000/svg">
  <!-- Background -->
  <rect width="100%" height="100%" fill="#FFFFFF"/>

  <!-- Words -->
  <g font-family="Arial, sans-serif" font-size="24" text-anchor="middle">
    <text x="342.06" y="274.37" transform="rotate(2.10 342.06 274.37)">🍪🐷</text>
    <text x="329.78" y="92.51" transform="rotate(12.25 329.78 92.51)">☁️✈️</text>
    <text x="309.34" y="156.89" transform="rotate(-0.69 309.34 156.89)">🐵🍌</text>
    <text x="87.22" y="476.15" transform="rotate(-1.49 87.22 476.15)">🐷🍪</text>
    <text x="802.78" y="187.44" transform="rotate(4.82 802.78 187.44)">🪑⚽</text>
    <text x="895.80" y="586.23" transform="rotate(3.68 895.80 586.23)">⚽🪑</text>
    <text x="961.72" y="700.20" transform="rotate(11.11 961.72 700.20)">🚲⭐</text>
    <text x="516.79" y="147.62" transform="rotate(0.11 516.79 147.62)">🌳🐦</text>
    <text x="57.83" y="553.84" transform="rotate(-6.63 57.83 553.84)">🍎🐭</text>
    <text x="599.38" y="229.28" transform="rotate(-3.37 599.38 229.28)">🌼🐸</text>
    <text x="812.05" y="712.12" transform="rotate(-9.82 812.05 712.12)">🧼🛁</text>
    <text x="124.23" y="341.41" transform="rotate(-0.94 124.23 341.41)">📦🧸</text>
    <text x="741.45" y="648.50" transform="rotate(7.84 741.45 648.50)">🍌🐵</text>
    <text x="701.25" y="559.88" transform="rotate(6.35 701.25 559.88)">🐭🐱</text>
    <text x="277.85" y="481.40" transform="rotate(-5.87 277.85 481.40)">🛁🧼</text>
    <text x="955.16" y="743.49" transform="rotate(-14.76 955.16 743.49)">🐸🐷</text>
    <text x="425.59" y="604.86" transform="rotate(-11.01 425.59 604.86)">🐢🐰</text>
    <text x="155.21" y="299.98" transform="rotate(-4.51 155.21 299.98)">🐘🐔</text>
    <text x="917.27" y="272.49" transform="rotate(10.77 917.27 272.49)">🧀🐶</text>
    <text x="121.59" y="423.14" transform="rotate(-4.19 121.59 423.14)">✈️☁️</text>
    <text x="305.08" y="435.03" transform="rotate(1.58 305.08 435.03)">🥚🐔</text>
    <text x="330.35" y="792.67" transform="rotate(-1.57 330.35 792.67)">🐔🐘</text>
    <text x="543.01" y="567.91" transform="rotate(-2.04 543.01 567.91)">🐱🐭</text>
    <text x="159.65" y="681.70" transform="rotate(0.65 159.65 681.70)">🏠🔑</text>
    <text x="619.16" y="494.11" transform="rotate(10.86 619.16 494.11)">🏠🚗</text>
    <text x="965.86" y="641.40" transform="rotate(-13.34 965.86 641.40)">🧸📦</text>
    <text x="939.06" y="534.62" transform="rotate(-8.17 939.06 534.62)">🐦🌳</text>
    <text x="912.59" y="800.24" transform="rotate(-3.15 912.59 800.24)">🐟🐶</text>
    <text x="585.06" y="791.17" transform="rotate(-11.67 585.06 791.17)">⭐🌈</text>
    <text x="436.56" y="229.95" transform="rotate(-8.59 436.56 229.95)">🌈⭐</text>
    <text x="625.08" y="131.52" transform="rotate(-1.18 625.08 131.52)">🚗🏠</text>
    <text x="763.81" y="97.87" transform="rotate(6.84 763.81 97.87)">🐔🥚</text>
    <text x="378.60" y="687.64" transform="rotate(-11.60 378.60 687.64)">🐸🌼</text>
    <text x="159.73" y="144.19" transform="rotate(13.40 159.73 144.19)">⭐🚲</text>
    <text x="910.23" y="476.81" transform="rotate(5.69 910.23 476.81)">🐶🐟</text>
    <text x="213.62" y="780.60" transform="rotate(4.57 213.62 780.60)">🐭🍎</text>
    <text x="89.90" y="208.96" transform="rotate(2.24 89.90 208.96)">🔑🏠</text>
    <text x="691.39" y="605.32" transform="rotate(-4.66 691.39 605.32)">🐷🐸</text>
    <text x="384.41" y="496.72" transform="rotate(-11.12 384.41 496.72)">🐰🐢</text>
    <text x="757.40" y="423.38" transform="rotate(-6.49 757.40 423.38)">🐶🧀</text>
  </g>
</svg>