<?xml version="1.0" encoding="UTF-8"?>
<svg width="1056" height="816" viewBox="0 0 1056 816"
     xmlns="http://www.w3.org/2000/svg">
  <!-- Background -->
  <rect width="100%" height="100%" fill="#FFFFFF"/>

  <!-- Words -->
  <g font-family="Arial, sans-serif" font-size="24" text-anchor="middle">
    <text x="270.30" y="360.97" transform="rotate(3.02 270.30 360.97)">🐟🐶</text>
    <text x="718.37" y="512.34" transform="rotate(-0.53 718.37 512.34)">📦🧸</text>
    <text x="406.30" y="653.32" transform="rotate(-1.23 406.30 653.32)">⚽🪑</text>
    <text x="151.08" y="784.20" transform="rotate(-11.40 151.08 784.20)">🚲⭐</text>
    <text x="395.19" y="218.79" transform="rotate(5.16 395.19 218.79)">🌈⭐</text>
    <text x="724.92" y="140.36" transform="rotate(13.72 724.92 140.36)">🐢🐰</text>
    <text x="999.79" y="420.64" transform="rotate(-0.11 999.79 420.64)">🛁🧼</text>
    <text x="216.62" y="319.11" transform="rotate(3.76 216.62 319.11)">🍌🐵</text>
    <text x="581.15" y="378.44" transform="rotate(13.12 581.15 378.44)">🍎🐭</text>
    <text x="582.49" y="720.26" transform="rotate(3.96 582.49 720.26)">⭐🌈</text>
    <text x="121.99" y="504.50" transform="rotate(13.97 121.99 504.50)">🐶🐟</text>
    <text x="593.43" y="63.34" transform="rotate(12.20 593.43 63.34)">🪑⚽</text>
    <text x="529.50" y="570.50" transform="rotate(2.04 529.50 570.50)">🐱🐭</text>
    <text x="952.30" y="334.43" transform="rotate(4.63 952.30 334.43)">⭐🌈</text>
    <text x="584.04" y="321.32" transform="rotate(-11.32 584.04 321.32)">🧸📦</text>
    <text x="289.75" y="701.22" transform="rotate(-11.46 289.75 701.22)">🍪🐷</text>
    <text x="65.68" y="390.80" transform="rotate(-11.86 65.68 390.80)">🐵🍌</text>
    <text x="826.31" y="593.55" transform="rotate(14.63 826.31 593.55)">🏠🚗</text>
    <text x="708.94" y="236.39" transform="rotate(4.45 708.94 236.39)">🐶🧀</text>
    <text x="736.22" y="651.76" transform="rotate(-4.15 736.22 651.76)">🐶🧀</text>
    <text x="924.92" y="234.83" transform="rotate(0.79 924.92 234.83)">🧼🛁</text>
    <text x="577.37" y="277.26" transform="rotate(12.35 577.37 277.26)">🐘🐔</text>
    <text x="702.99" y="574.17" transform="rotate(7.12 702.99 574.17)">🍌🐵</text>
    <text x="984.74" y="539.54" transform="rotate(-11.97 984.74 539.54)">🐢🐰</text>
    <text x="802.40" y="424.11" transform="rotate(-9.19 802.40 424.11)">⚽🪑</text>
    <text x="204.26" y="416.86" transform="rotate(-7.17 204.26 416.86)">🐭🐱</text>
    <text x="466.48" y="454.29" transform="rotate(-13.88 466.48 454.29)">🌼🐸</text>
    <text x="70.99" y="560.43" transform="rotate(4.17 70.99 560.43)">⭐🚲</text>
    <text x="192.69" y="179.07" transform="rotate(-1.38 192.69 179.07)">🐶🐟</text>
    <text x="976.68" y="152.57" transform="rotate(-3.03 976.68 152.57)">🍪🐷</text>
    <text x="785.85" y="191.49" transform="rotate(2.43 785.85 191.49)">🐔🐘</text>
    <text x="74.98" y="148.10" transform="rotate(-5.12 74.98 148.10)">🧀🐶</text>
    <text x="734.77" y="319.73" transform="rotate(-6.47 734.77 319.73)">🐵🍌</text>
    <text x="933.40" y="629.53" transform="rotate(3.45 933.40 629.53)">🐭🍎</text>
    <text x="141.99" y="709.64" transform="rotate(-4.50 141.99 709.64)">☁️✈️</text>
    <text x="372.78" y="86.05" transform="rotate(-14.79 372.78 86.05)">🏠🔑</text>
    <text x="458.45" y="342.48" transform="rotate(9.56 458.45 342.48)">🔑🏠</text>
    <text x="739.80" y="42.73" transform="rotate(-12.11 739.80 42.73)">🧸📦</text>
    <text x="61.91" y="779.53" transform="rotate(-0.84 61.91 779.53)">🌳🐦</text>
    <text x="531.21" y="233.27" transform="rotate(-3.39 531.21 233.27)">🐔🥚</text>
    <text x="591.78" y="501.22" transform="rotate(10.57 591.78 501.22)">🐸🐷</text>
    <text x="855.22" y="297.03" transform="rotate(13.57 855.22 297.03)">☁️✈️</text>
    <text x="482.24" y="702.95" transform="rotate(-6.78 482.24 702.95)">🔑🏠</text>
    <text x="306.03" y="768.53" transform="rotate(8.72 306.03 768.53)">🐦🌳</text>
    <text x="1003.03" y="275.97" transform="rotate(2.66 1003.03 275.97)">🚗🏠</text>
    <text x="495.11" y="39.23" transform="rotate(-3.91 495.11 39.23)">✈️☁️</text>
    <text x="810.97" y="235.78" transform="rotate(1.62 810.97 235.78)">🏠🚗</text>
    <text x="869.58" y="487.66" transform="rotate(-14.35 869.58 487.66)">🧀🐶</text>
    <text x="392.58" y="596.14" transform="rotate(2.20 392.58 596.14)">🏠🔑</text>
    <text x="79.57" y="345.56" transform="rotate(0.47 79.57 345.56)">🌳🐦</text>
    <text x="974.85" y="84.68" transform="rotate(-5.33 974.85 84.68)">🪑⚽</text>
    <text x="409.08" y="545.66" transform="rotate(12.52 409.08 545.66)">🐸🌼</text>
    <text x="667.40" y="448.78" transform="rotate(-4.43 667.40 448.78)">🌈⭐</text>
    <text x="202.76" y="66.63" transform="rotate(14.89 202.76 66.63)">🐱🐭</text>
    <text x="554.40" y="639.26" transform="rotate(-14.32 554.40 639.26)">🐭🍎</text>
    <text x="97.32" y="93.98" transform="rotate(2.46 97.32 93.98)">🐔🐘</text>
    <text x="973.53" y="587.07" transform="rotate(9.69 973.53 587.07)">🚗🏠</text>
    <text x="323.51" y="418.32" transform="rotate(0.04 323.51 418.32)">🐷🐸</text>
    <text x="972.73" y="729.67" transform="rotate(10.59 972.73 729.67)">✈️☁️</text>
    <text x="424.94" y="136.04" transform="rotate(14.35 424.94 136.04)">🥚🐔</text>
    <text x="463.07" y="278.19" transform="rotate(-10.60 463.07 278.19)">🐸🐷</text>
    <text x="72.69" y="661.70" transform="rotate(-12.35 72.69 661.70)">🚲⭐</text>
    <text x="69.23" y="611.91" transform="rotate(-0.52 69.23 611.91)">🥚🐔</text>
    <text x="816.10" y="365.77" transform="rotate(14.37 816.10 365.77)">🐰🐢</text>
    <text x="341.13" y="312.77" transform="rotate(-5.91 341.13 312.77)">🐘🐔</text>
    <text x="270.60" y="494.76" transform="rotate(-13.70 270.60 494.76)">🐰🐢</text>
    <text x="148.44" y="268.34" transform="rotate(7.89 148.44 268.34)">🧼🛁</text>
    <text x="973.48" y="688.44" transform="rotate(-14.69 973.48 688.44)">🛁🧼</text>
    <text x="276.55" y="585.36" transform="rotate(-3.20 276.55 585.36)">🐦🌳</text>
    <text x="580.47" y="773.64" transform="rotate(9.36 580.47 773.64)">🐷🍪</text>
    <text x="171.13" y="579.46" transform="rotate(-5.68 171.13 579.46)">🐷🐸</text>
    <text x="896.02" y="443.16" transform="rotate(-1.88 896.02 443.16)">🐟🐶</text>
    <text x="834.86" y="117.65" transform="rotate(-11.60 834.86 117.65)">📦🧸</text>
    <text x="849.53" y="761.59" transform="rotate(-14.70 849.53 761.59)">🐔🥚</text>
    <text x="203.22" y="653.68" transform="rotate(-3.98 203.22 653.68)">🐷🍪</text>
    <text x="241.01" y="535.58" transform="rotate(-10.13 241.01 535.58)">🍎🐭</text>
    <text x="587.93" y="143.23" transform="rotate(-2.15 587.93 143.23)">🐭🐱</text>
    <text x="691.65" y="87.39" transform="rotate(10.71 691.65 87.39)">🌼🐸</text>
    <text x="827.41" y="529.94" transform="rotate(-8.62 827.41 529.94)">⭐🚲</text>
    <text x="968.18" y="493.06" transform="rotate(-10.34 968.18 493.06)">🐸🌼</text>
  </g>
</svg>