<?xml version="1.0" encoding="UTF-8"?>
<svg width="1056" height="816" viewBox="0 0 1056 816"
     xmlns="http://www.w3.org/2000/svg">
  <!-- Background -->
  <rect width="100%" height="100%" fill="#FFFFFF"/>

  <!-- Words -->
  <g font-family="Arial, sans-serif" font-size="24" text-anchor="middle">
    <text x="867.13" y="656.13" transform="rotate(-6.05 867.13 656.13)">⚽🪑</text>
    <text x="542.86" y="333.91" transform="rotate(12.02 542.86 333.91)">🚗🏠</text>
    <text x="536.11" y="685.96" transform="rotate(2.30 536.11 685.96)">🍪🐷</text>
    <text x="471.07" y="496.94" transform="rotate(12.40 471.07 496.94)">🐦🌳</text>
    <text x="959.38" y="630.02" transform="rotate(9.39 959.38 630.02)">🐶🐟</text>
    <text x="877.80" y="45.70" transform="rotate(2.92 877.80 45.70)">🪑⚽</text>
    <text x="742.38" y="489.98" transform="rotate(6.54 742.38 489.98)">🍎🐭</text>
    <text x="970.91" y="694.09" transform="rotate(3.39 970.91 694.09)">☁️✈️</text>
    <text x="601.31" y="136.38" transform="rotate(7.19 601.31 136.38)">🐶🐟</text>
    <text x="856.11" y="202.31" transform="rotate(12.23 856.11 202.31)">🧸📦</text>
    <text x="99.83" y="353.11" transform="rotate(-10.18 99.83 353.11)">🔑🏠</text>
    <text x="254.67" y="743.94" transform="rotate(3.67 254.67 743.94)">🍪🐷</text>
    <text x="767.20" y="425.59" transform="rotate(-10.56 767.20 425.59)">⭐🌈</text>
    <text x="281.00" y="540.42" transform="rotate(-4.32 281.00 540.42)">🐰🐢</text>
    <text x="241.23" y="453.43" transform="rotate(11.13 241.23 453.43)">🐷🍪</text>
    <text x="78.00" y="791.55" transform="rotate(-11.57 78.00 791.55)">🧸📦</text>
    <text x="244.10" y="206.11" transform="rotate(6.33 244.10 206.11)">🐔🐘</text>
    <text x="882.03" y="412.19" transform="rotate(2.47 882.03 412.19)">⭐🚲</text>
    <text x="383.03" y="94.51" transform="rotate(-11.40 383.03 94.51)">🥚🐔</text>
    <text x="598.38" y="587.92" transform="rotate(-13.71 598.38 587.92)">🐟🐶</text>
    <text x="225.58" y="605.05" transform="rotate(7.58 225.58 605.05)">🐰🐢</text>
    <text x="124.79" y="652.16" transform="rotate(13.08 124.79 652.16)">🐘🐔</text>
    <text x="971.82" y="568.34" transform="rotate(-1.03 971.82 568.34)">⚽🪑</text>
    <text x="140.29" y="724.70" transform="rotate(-11.25 140.29 724.70)">🐘🐔</text>
    <text x="663.94" y="632.43" transform="rotate(14.58 663.94 632.43)">🐷🐸</text>
    <text x="827.32" y="313.43" transform="rotate(-11.52 827.32 313.43)">🧀🐶</text>
    <text x="731.79" y="715.96" transform="rotate(1.89 731.79 715.96)">🐸🐷</text>
    <text x="335.42" y="33.25" transform="rotate(-6.32 335.42 33.25)">🍎🐭</text>
    <text x="193.12" y="44.03" transform="rotate(1.95 193.12 44.03)">🐷🐸</text>
    <text x="52.77" y="186.64" transform="rotate(-13.63 52.77 186.64)">🌳🐦</text>
    <text x="399.79" y="317.28" transform="rotate(9.61 399.79 317.28)">🐔🐘</text>
    <text x="836.63" y="545.29" transform="rotate(-7.44 836.63 545.29)">🍌🐵</text>
    <text x="669.83" y="292.36" transform="rotate(-10.79 669.83 292.36)">🐸🐷</text>
    <text x="746.68" y="362.52" transform="rotate(13.28 746.68 362.52)">🧼🛁</text>
    <text x="700.63" y="793.88" transform="rotate(9.52 700.63 793.88)">🏠🚗</text>
    <text x="259.19" y="310.14" transform="rotate(0.26 259.19 310.14)">🚲⭐</text>
    <text x="490.35" y="593.81" transform="rotate(5.94 490.35 593.81)">🐟🐶</text>
    <text x="943.63" y="291.83" transform="rotate(-12.81 943.63 291.83)">⭐🌈</text>
    <text x="462.72" y="380.39" transform="rotate(-10.06 462.72 380.39)">📦🧸</text>
    <text x="716.08" y="546.92" transform="rotate(-1.20 716.08 546.92)">🐶🧀</text>
    <text x="240.62" y="677.61" transform="rotate(-8.06 240.62 677.61)">⭐🚲</text>
    <text x="969.42" y="204.16" transform="rotate(-4.32 969.42 204.16)">🚗🏠</text>
    <text x="415.00" y="221.33" transform="rotate(11.16 415.00 221.33)">🪑⚽</text>
    <text x="746.92" y="196.78" transform="rotate(12.62 746.92 196.78)">🐢🐰</text>
    <text x="531.68" y="443.42" transform="rotate(-3.92 531.68 443.42)">🧀🐶</text>
    <text x="55.28" y="233.59" transform="rotate(-7.84 55.28 233.59)">🏠🚗</text>
    <text x="307.65" y="246.95" transform="rotate(-10.09 307.65 246.95)">🌼🐸</text>
    <text x="385.43" y="607.96" transform="rotate(-14.35 385.43 607.96)">✈️☁️</text>
    <text x="60.32" y="275.88" transform="rotate(8.59 60.32 275.88)">🐱🐭</text>
    <text x="828.10" y="600.09" transform="rotate(-13.15 828.10 600.09)">🐭🐱</text>
    <text x="981.21" y="57.35" transform="rotate(-1.17 981.21 57.35)">🐶🧀</text>
    <text x="96.74" y="95.93" transform="rotate(11.40 96.74 95.93)">🐱🐭</text>
    <text x="102.98" y="471.97" transform="rotate(13.01 102.98 471.97)">🏠🔑</text>
    <text x="680.40" y="427.10" transform="rotate(-6.70 680.40 427.10)">🌈⭐</text>
    <text x="855.09" y="136.65" transform="rotate(-2.53 855.09 136.65)">🌼🐸</text>
    <text x="457.42" y="761.51" transform="rotate(10.76 457.42 761.51)">🏠🔑</text>
    <text x="237.58" y="382.65" transform="rotate(6.22 237.58 382.65)">🐵🍌</text>
    <text x="569.35" y="766.28" transform="rotate(-12.18 569.35 766.28)">🐭🍎</text>
    <text x="688.53" y="64.78" transform="rotate(12.55 688.53 64.78)">📦🧸</text>
    <text x="115.21" y="538.63" transform="rotate(4.61 115.21 538.63)">🛁🧼</text>
    <text x="963.27" y="470.32" transform="rotate(9.86 963.27 470.32)">🐸🌼</text>
    <text x="462.60" y="37.34" transform="rotate(-12.02 462.60 37.34)">🐔🥚</text>
    <text x="414.78" y="158.40" transform="rotate(-11.33 414.78 158.40)">🛁🧼</text>
    <text x="950.77" y="337.38" transform="rotate(-10.63 950.77 337.38)">🐸🌼</text>
    <text x="832.16" y="800.78" transform="rotate(-8.03 832.16 800.78)">🍌🐵</text>
    <text x="343.38" y="675.92" transform="rotate(13.49 343.38 675.92)">🚲⭐</text>
    <text x="571.03" y="45.62" transform="rotate(5.51 571.03 45.62)">🔑🏠</text>
    <text x="999.21" y="107.67" transform="rotate(-12.99 999.21 107.67)">🐢🐰</text>
    <text x="209.80" y="156.07" transform="rotate(6.84 209.80 156.07)">🐭🍎</text>
    <text x="363.37" y="395.23" transform="rotate(-6.52 363.37 395.23)">🧼🛁</text>
    <text x="868.09" y="740.54" transform="rotate(-1.23 868.09 740.54)">🐦🌳</text>
    <text x="519.80" y="237.77" transform="rotate(13.51 519.80 237.77)">🥚🐔</text>
    <text x="487.10" y="644.87" transform="rotate(9.41 487.10 644.87)">🐔🥚</text>
    <text x="256.27" y="92.17" transform="rotate(-5.06 256.27 92.17)">✈️☁️</text>
    <text x="350.00" y="438.84" transform="rotate(-8.32 350.00 438.84)">🌳🐦</text>
    <text x="577.75" y="529.88" transform="rotate(-14.19 577.75 529.88)">🐷🍪</text>
    <text x="520.19" y="280.29" transform="rotate(-12.58 520.19 280.29)">🐵🍌</text>
    <text x="170.85" y="259.41" transform="rotate(-1.19 170.85 259.41)">🐭🐱</text>
    <text x="657.17" y="249.82" transform="rotate(-8.05 657.17 249.82)">☁️✈️</text>
    <text x="843.56" y="260.65" transform="rotate(10.83 843.56 260.65)">🌈⭐</text>
  </g>
</svg>