<?xml version="1.0" encoding="UTF-8"?>
<svg width="1056" height="816" viewBox="0 0 1056 816"
     xmlns="http://www.w3.org/2000/svg">
  <!-- Background -->
  <rect width="100%" height="100%" fill="#FFFFFF"/>

  <!-- Words -->
  <g font-family="Arial, sans-serif" font-size="24" text-anchor="middle">
    <text x="684.20" y="478.94" transform="rotate(-6.70 684.20 478.94)">🍪🐷</text>
    <text x="603.67" y="295.37" transform="rotate(-4.65 603.67 295.37)">🐢🐰</text>
    <text x="163.64" y="552.96" transform="rotate(14.98 163.64 552.96)">🏠🚗</text>
    <text x="464.52" y="278.20" transform="rotate(-2.66 464.52 278.20)">🧀🐶</text>
    <text x="465.73" y="46.29" transform="rotate(-0.78 465.73 46.29)">🐷🍪</text>
    <text x="859.57" y="217.08" transform="rotate(-9.04 859.57 217.08)">⭐🚲</text>
    <text x="667.47" y="368.26" transform="rotate(-10.67 667.47 368.26)">🥚🐔</text>
    <text x="374.34" y="697.41" transform="rotate(11.37 374.34 697.41)">🛁🧼</text>
    <text x="379.09" y="173.19" transform="rotate(-6.44 379.09 173.19)">🐭🍎</text>
    <text x="762.47" y="603.69" transform="rotate(12.17 762.47 603.69)">🍌🐵</text>
    <text x="637.06" y="648.60" transform="rotate(9.11 637.06 648.60)">🌳🐦</text>
    <text x="135.26" y="326.10" transform="rotate(8.92 135.26 326.10)">🚗🏠</text>
    <text x="827.32" y="731.98" transform="rotate(1.77 827.32 731.98)">🐷🐸</text>
    <text x="770.17" y="155.33" transform="rotate(9.85 770.17 155.33)">🌈⭐</text>
    <text x="236.21" y="740.35" transform="rotate(-9.77 236.21 740.35)">🌼🐸</text>
    <text x="685.47" y="698.45" transform="rotate(8.63 685.47 698.45)">🏠🔑</text>
    <text x="878.00" y="589.29" transform="rotate(-13.04 878.00 589.29)">🚲⭐</text>
    <text x="159.16" y="264.99" transform="rotate(9.42 159.16 264.99)">🐶🧀</text>
    <text x="365.87" y="288.32" transform="rotate(-4.28 365.87 288.32)">🐘🐔</text>
    <text x="120.70" y="693.41" transform="rotate(4.64 120.70 693.41)">🧼🛁</text>
    <text x="645.44" y="208.27" transform="rotate(14.63 645.44 208.27)">⚽🪑</text>
    <text x="794.83" y="49.18" transform="rotate(-12.76 794.83 49.18)">🐔🐘</text>
    <text x="253.35" y="674.58" transform="rotate(-14.50 253.35 674.58)">🐟🐶</text>
    <text x="324.32" y="330.60" transform="rotate(9.78 324.32 330.60)">🐦🌳</text>
    <text x="314.64" y="49.10" transform="rotate(-11.20 314.64 49.10)">✈️☁️</text>
    <text x="956.96" y="728.01" transform="rotate(4.43 956.96 728.01)">⭐🌈</text>
    <text x="995.22" y="566.06" transform="rotate(0.19 995.22 566.06)">🐸🌼</text>
    <text x="773.37" y="438.15" transform="rotate(14.68 773.37 438.15)">🪑⚽</text>
    <text x="61.33" y="771.48" transform="rotate(4.77 61.33 771.48)">🐶🐟</text>
    <text x="341.52" y="412.19" transform="rotate(8.48 341.52 412.19)">🍎🐭</text>
    <text x="135.79" y="58.86" transform="rotate(-12.06 135.79 58.86)">🐵🍌</text>
    <text x="525.70" y="768.97" transform="rotate(11.79 525.70 768.97)">🐭🐱</text>
    <text x="405.38" y="754.78" transform="rotate(0.60 405.38 754.78)">☁️✈️</text>
    <text x="214.77" y="151.91" transform="rotate(-3.98 214.77 151.91)">🐱🐭</text>
    <text x="941.33" y="55.15" transform="rotate(10.16 941.33 55.15)">🔑🏠</text>
    <text x="702.71" y="286.15" transform="rotate(-2.53 702.71 286.15)">🐰🐢</text>
    <text x="70.04" y="460.60" transform="rotate(2.63 70.04 460.60)">🧸📦</text>
    <text x="812.61" y="351.99" transform="rotate(11.72 812.61 351.99)">📦🧸</text>
    <text x="959.82" y="255.13" transform="rotate(1.76 959.82 255.13)">🐔🥚</text>
    <text x="544.65" y="717.07" transform="rotate(9.97 544.65 717.07)">🐸🐷</text>
  </g>
</svg>