<?xml version="1.0" encoding="UTF-8"?>
<svg width="1056" height="798" viewBox="0 0 1056 798"
     xmlns="http://www.w3.org/2000/svg">
  <!-- Background -->
  <rect width="100%" height="100%" fill="#FFFFFF"/>

  <!-- Words -->
  <g font-family="Arial, sans-serif" font-size="52" text-anchor="middle">
    <text x="214.20" y="588.87" transform="rotate(-3.27 214.20 588.87)">🐟🐶</text>
    <text x="140.10" y="320.92" transform="rotate(-5.91 140.10 320.92)">🌼🐸</text>
    <text x="654.19" y="186.50" transform="rotate(9.79 654.19 186.50)">✈️☁️</text>
    <text x="930.70" y="275.30" transform="rotate(13.21 930.70 275.30)">☁️✈️</text>
    <text x="630.34" y="614.13" transform="rotate(3.68 630.34 614.13)">🐢🐰</text>
    <text x="905.21" y="678.29" transform="rotate(3.36 905.21 678.29)">☁️✈️</text>
    <text x="666.00" y="312.96" transform="rotate(13.30 666.00 312.96)">🐸🌼</text>
    <text x="356.76" y="321.81" transform="rotate(11.04 356.76 321.81)">🐢🐰</text>
    <text x="821.74" y="468.93" transform="rotate(-6.46 821.74 468.93)">🐵🍌</text>
    <text x="239.30" y="221.92" transform="rotate(-0.52 239.30 221.92)">🌼🐸</text>
    <text x="205.21" y="491.66" transform="rotate(2.79 205.21 491.66)">🐰🐢</text>
    <text x="196.62" y="136.29" transform="rotate(-0.11 196.62 136.29)">🏠🔑</text>
    <text x="724.89" y="59.67" transform="rotate(-13.65 724.89 59.67)">🔑🏠</text>
    <text x="542.15" y="773.39" transform="rotate(-4.48 542.15 773.39)">🐶🐟</text>
    <text x="138.85" y="741.70" transform="rotate(9.13 138.85 741.70)">🍌🐵</text>
    <text x="938.45" y="78.29" transform="rotate(-13.80 938.45 78.29)">🏠🚗</text>
    <text x="459.45" y="440.74" transform="rotate(-11.43 459.45 440.74)">🔑🏠</text>
    <text x="856.75" y="583.90" transform="rotate(-12.52 856.75 583.90)">✈️☁️</text>
    <text x="100.02" y="57.31" transform="rotate(-6.11 100.02 57.31)">🍌🐵</text>
    <text x="483.80" y="88.97" transform="rotate(6.48 483.80 88.97)">🐰🐢</text>
    <text x="947.93" y="158.70" transform="rotate(7.88 947.93 158.70)">🐶🐟</text>
    <text x="948.17" y="357.90" transform="rotate(2.44 948.17 357.90)">🐟🐶</text>
    <text x="777.77" y="776.10" transform="rotate(-13.33 777.77 776.10)">🚗🏠</text>
    <text x="133.34" y="400.81" transform="rotate(-1.36 133.34 400.81)">🐸🌼</text>
    <text x="438.75" y="203.05" transform="rotate(-10.66 438.75 203.05)">🥚🐔</text>
    <text x="383.01" y="667.55" transform="rotate(-8.85 383.01 667.55)">🏠🔑</text>
    <text x="419.87" y="528.31" transform="rotate(-6.17 419.87 528.31)">🥚🐔</text>
    <text x="341.73" y="763.95" transform="rotate(-12.94 341.73 763.95)">🚗🏠</text>
    <text x="654.15" y="690.39" transform="rotate(0.82 654.15 690.39)">🐵🍌</text>
    <text x="715.22" y="390.16" transform="rotate(-11.77 715.22 390.16)">🐔🥚</text>
    <text x="619.85" y="535.22" transform="rotate(-11.06 619.85 535.22)">🏠🚗</text>
    <text x="158.79" y="666.91" transform="rotate(6.05 158.79 666.91)">🐔🥚</text>
  </g>
</svg>