<?xml version="1.0" encoding="UTF-8"?>
<svg width="1056" height="816" viewBox="0 0 1056 816"
     xmlns="http://www.w3.org/2000/svg">
  <!-- Background -->
  <rect width="100%" height="100%" fill="#FFFFFF"/>

  <!-- Words -->
  <g font-family="Arial, sans-serif" font-size="24" text-anchor="middle">
    <text x="584.31" y="277.60" transform="rotate(-14.05 584.31 277.60)">🛁🧼</text>
    <text x="494.21" y="505.34" transform="rotate(-6.99 494.21 505.34)">🐶🐟</text>
    <text x="673.13" y="114.77" transform="rotate(13.23 673.13 114.77)">🏠🔑</text>
    <text x="996.30" y="291.08" transform="rotate(7.83 996.30 291.08)">🐵🍌</text>
    <text x="547.78" y="94.21" transform="rotate(-11.99 547.78 94.21)">🐸🌼</text>
    <text x="381.19" y="536.75" transform="rotate(-2.97 381.19 536.75)">⭐🌈</text>
    <text x="331.28" y="727.04" transform="rotate(4.77 331.28 727.04)">🔑🏠</text>
    <text x="185.80" y="61.64" transform="rotate(-2.03 185.80 61.64)">🪑⚽</text>
    <text x="224.53" y="667.09" transform="rotate(-2.65 224.53 667.09)">🐭🐱</text>
    <text x="661.18" y="593.37" transform="rotate(7.73 661.18 593.37)">🐶🐟</text>
    <text x="800.73" y="665.90" transform="rotate(-8.45 800.73 665.90)">⚽🪑</text>
    <text x="724.83" y="512.40" transform="rotate(-14.75 724.83 512.40)">🧀🐶</text>
    <text x="275.01" y="352.83" transform="rotate(10.30 275.01 352.83)">📦🧸</text>
    <text x="995.63" y="709.83" transform="rotate(-0.24 995.63 709.83)">🛁🧼</text>
    <text x="435.67" y="781.91" transform="rotate(-6.11 435.67 781.91)">⭐🚲</text>
    <text x="594.20" y="648.43" transform="rotate(12.93 594.20 648.43)">🍎🐭</text>
    <text x="486.36" y="198.63" transform="rotate(-4.67 486.36 198.63)">🐦🌳</text>
    <text x="984.64" y="394.14" transform="rotate(-14.82 984.64 394.14)">🐵🍌</text>
    <text x="767.06" y="712.22" transform="rotate(-2.38 767.06 712.22)">🏠🚗</text>
    <text x="900.60" y="603.30" transform="rotate(-7.46 900.60 603.30)">🌈⭐</text>
    <text x="258.50" y="115.40" transform="rotate(-12.06 258.50 115.40)">🍪🐷</text>
    <text x="203.12" y="580.26" transform="rotate(12.02 203.12 580.26)">🚲⭐</text>
    <text x="786.15" y="142.00" transform="rotate(13.02 786.15 142.00)">🐭🍎</text>
    <text x="964.99" y="123.59" transform="rotate(11.08 964.99 123.59)">🐸🌼</text>
    <text x="639.41" y="448.56" transform="rotate(13.61 639.41 448.56)">🐔🐘</text>
    <text x="56.08" y="435.48" transform="rotate(2.66 56.08 435.48)">🍎🐭</text>
    <text x="430.43" y="39.18" transform="rotate(1.23 430.43 39.18)">🐰🐢</text>
    <text x="685.56" y="222.07" transform="rotate(7.93 685.56 222.07)">🌳🐦</text>
    <text x="518.21" y="439.75" transform="rotate(12.09 518.21 439.75)">🧀🐶</text>
    <text x="747.93" y="800.21" transform="rotate(14.91 747.93 800.21)">🔑🏠</text>
    <text x="361.95" y="459.69" transform="rotate(-5.92 361.95 459.69)">🐶🧀</text>
    <text x="854.06" y="528.03" transform="rotate(6.65 854.06 528.03)">🚗🏠</text>
    <text x="812.90" y="82.44" transform="rotate(13.58 812.90 82.44)">🐘🐔</text>
    <text x="290.54" y="298.95" transform="rotate(-1.11 290.54 298.95)">📦🧸</text>
    <text x="837.40" y="386.36" transform="rotate(-13.33 837.40 386.36)">🍌🐵</text>
    <text x="874.32" y="470.97" transform="rotate(6.79 874.32 470.97)">🐟🐶</text>
    <text x="397.62" y="319.74" transform="rotate(10.83 397.62 319.74)">🐢🐰</text>
    <text x="62.92" y="340.91" transform="rotate(10.33 62.92 340.91)">🐰🐢</text>
    <text x="876.36" y="283.27" transform="rotate(3.67 876.36 283.27)">🍌🐵</text>
    <text x="195.02" y="792.16" transform="rotate(-3.22 195.02 792.16)">🥚🐔</text>
    <text x="884.88" y="230.83" transform="rotate(8.01 884.88 230.83)">🥚🐔</text>
    <text x="509.50" y="579.88" transform="rotate(-0.78 509.50 579.88)">🐷🍪</text>
    <text x="123.06" y="661.77" transform="rotate(-5.97 123.06 661.77)">🍌🐵</text>
    <text x="451.86" y="741.05" transform="rotate(-2.61 451.86 741.05)">🥚🐔</text>
    <text x="62.26" y="60.46" transform="rotate(11.40 62.26 60.46)">✈️☁️</text>
    <text x="766.08" y="329.40" transform="rotate(8.03 766.08 329.40)">🐶🐟</text>
    <text x="571.80" y="691.70" transform="rotate(-11.42 571.80 691.70)">⭐🚲</text>
    <text x="183.11" y="420.10" transform="rotate(5.40 183.11 420.10)">🐰🐢</text>
    <text x="170.33" y="745.69" transform="rotate(1.49 170.33 745.69)">🐱🐭</text>
    <text x="544.26" y="51.46" transform="rotate(-11.22 544.26 51.46)">🐸🐷</text>
    <text x="671.60" y="379.29" transform="rotate(2.91 671.60 379.29)">🐔🥚</text>
    <text x="108.85" y="104.93" transform="rotate(-5.74 108.85 104.93)">🐷🐸</text>
    <text x="72.78" y="266.47" transform="rotate(6.96 72.78 266.47)">🐦🌳</text>
    <text x="847.75" y="781.89" transform="rotate(6.36 847.75 781.89)">🧸📦</text>
    <text x="543.83" y="369.22" transform="rotate(-2.04 543.83 369.22)">🍎🐭</text>
    <text x="976.92" y="441.15" transform="rotate(13.82 976.92 441.15)">🌳🐦</text>
    <text x="386.72" y="142.41" transform="rotate(10.40 386.72 142.41)">🐸🌼</text>
    <text x="329.27" y="581.47" transform="rotate(10.20 329.27 581.47)">✈️☁️</text>
    <text x="699.22" y="756.97" transform="rotate(-3.12 699.22 756.97)">🍪🐷</text>
    <text x="297.53" y="418.12" transform="rotate(-11.99 297.53 418.12)">🍪🐷</text>
    <text x="817.76" y="30.08" transform="rotate(0.02 817.76 30.08)">🏠🔑</text>
    <text x="954.11" y="645.59" transform="rotate(-11.03 954.11 645.59)">🐱🐭</text>
    <text x="1001.82" y="531.48" transform="rotate(2.24 1001.82 531.48)">⚽🪑</text>
    <text x="674.36" y="157.74" transform="rotate(-5.51 674.36 157.74)">☁️✈️</text>
    <text x="263.13" y="205.49" transform="rotate(2.93 263.13 205.49)">🐭🍎</text>
    <text x="328.65" y="35.02" transform="rotate(10.51 328.65 35.02)">🐔🐘</text>
    <text x="352.00" y="213.11" transform="rotate(-14.85 352.00 213.11)">🚲⭐</text>
    <text x="974.20" y="60.78" transform="rotate(4.99 974.20 60.78)">🔑🏠</text>
    <text x="53.15" y="502.54" transform="rotate(11.29 53.15 502.54)">🌼🐸</text>
    <text x="225.45" y="494.93" transform="rotate(-1.03 225.45 494.93)">📦🧸</text>
    <text x="116.04" y="208.90" transform="rotate(9.05 116.04 208.90)">🐶🧀</text>
    <text x="458.64" y="258.36" transform="rotate(11.14 458.64 258.36)">🧸📦</text>
    <text x="806.27" y="569.89" transform="rotate(-2.57 806.27 569.89)">🐸🐷</text>
    <text x="673.03" y="47.81" transform="rotate(-3.76 673.03 47.81)">🪑⚽</text>
    <text x="38.47" y="391.45" transform="rotate(-11.56 38.47 391.45)">🌈⭐</text>
    <text x="420.20" y="641.50" transform="rotate(-13.55 420.20 641.50)">🐢🐰</text>
    <text x="419.00" y="94.02" transform="rotate(2.40 419.00 94.02)">🐷🍪</text>
    <text x="115.33" y="585.79" transform="rotate(4.18 115.33 585.79)">☁️✈️</text>
    <text x="268.33" y="625.26" transform="rotate(11.88 268.33 625.26)">🐔🥚</text>
    <text x="598.75" y="778.04" transform="rotate(14.12 598.75 778.04)">🐟🐶</text>
    <text x="984.24" y="177.49" transform="rotate(13.58 984.24 177.49)">🐶🧀</text>
    <text x="496.01" y="137.32" transform="rotate(12.89 496.01 137.32)">🐸🐷</text>
    <text x="477.39" y="684.53" transform="rotate(11.98 477.39 684.53)">🌳🐦</text>
    <text x="797.15" y="189.08" transform="rotate(-1.78 797.15 189.08)">🐭🐱</text>
    <text x="624.92" y="521.17" transform="rotate(-14.32 624.92 521.17)">✈️☁️</text>
    <text x="738.89" y="467.28" transform="rotate(-9.28 738.89 467.28)">🐱🐭</text>
    <text x="982.28" y="238.41" transform="rotate(3.98 982.28 238.41)">🌈⭐</text>
    <text x="648.85" y="327.10" transform="rotate(-12.91 648.85 327.10)">🚗🏠</text>
    <text x="1006.07" y="482.42" transform="rotate(-6.64 1006.07 482.42)">🐔🐘</text>
    <text x="170.85" y="319.48" transform="rotate(14.72 170.85 319.48)">⭐🚲</text>
    <text x="106.08" y="158.94" transform="rotate(-13.00 106.08 158.94)">🌼🐸</text>
    <text x="801.16" y="622.39" transform="rotate(-13.48 801.16 622.39)">🐭🍎</text>
    <text x="713.69" y="671.11" transform="rotate(2.24 713.69 671.11)">⭐🌈</text>
    <text x="326.17" y="771.03" transform="rotate(11.46 326.17 771.03)">🏠🔑</text>
    <text x="187.11" y="270.59" transform="rotate(-1.67 187.11 270.59)">🐭🐱</text>
    <text x="407.94" y="383.16" transform="rotate(9.02 407.94 383.16)">🏠🚗</text>
    <text x="968.04" y="341.85" transform="rotate(3.32 968.04 341.85)">🐔🥚</text>
    <text x="1002.56" y="759.89" transform="rotate(-8.33 1002.56 759.89)">🐵🍌</text>
    <text x="266.21" y="156.31" transform="rotate(-3.89 266.21 156.31)">🐦🌳</text>
    <text x="659.37" y="714.03" transform="rotate(8.09 659.37 714.03)">⚽🪑</text>
    <text x="727.84" y="263.17" transform="rotate(-2.63 727.84 263.17)">🐷🍪</text>
    <text x="71.28" y="793.83" transform="rotate(0.56 71.28 793.83)">🧀🐶</text>
    <text x="979.93" y="584.82" transform="rotate(11.67 979.93 584.82)">⭐🌈</text>
    <text x="871.32" y="428.45" transform="rotate(9.13 871.32 428.45)">🐷🐸</text>
    <text x="881.89" y="736.54" transform="rotate(13.18 881.89 736.54)">🪑⚽</text>
    <text x="53.38" y="704.37" transform="rotate(11.17 53.38 704.37)">🐘🐔</text>
    <text x="341.02" y="685.03" transform="rotate(14.30 341.02 685.03)">🐢🐰</text>
    <text x="866.91" y="329.58" transform="rotate(-13.17 866.91 329.58)">🧼🛁</text>
    <text x="349.30" y="257.76" transform="rotate(8.55 349.30 257.76)">🚗🏠</text>
    <text x="165.88" y="364.28" transform="rotate(-5.61 165.88 364.28)">🧸📦</text>
    <text x="252.19" y="536.99" transform="rotate(-10.82 252.19 536.99)">🧼🛁</text>
    <text x="58.58" y="544.23" transform="rotate(-8.23 58.58 544.23)">🧼🛁</text>
    <text x="49.50" y="748.08" transform="rotate(6.23 49.50 748.08)">🐷🐸</text>
    <text x="896.65" y="693.16" transform="rotate(-13.81 896.65 693.16)">🐘🐔</text>
    <text x="515.84" y="325.18" transform="rotate(2.97 515.84 325.18)">🐟🐶</text>
    <text x="585.33" y="220.55" transform="rotate(-11.04 585.33 220.55)">🏠🚗</text>
    <text x="570.40" y="732.55" transform="rotate(13.95 570.40 732.55)">🌼🐸</text>
    <text x="583.77" y="138.65" transform="rotate(-6.99 583.77 138.65)">🚲⭐</text>
    <text x="951.61" y="802.05" transform="rotate(-7.45 951.61 802.05)">☁️✈️</text>
    <text x="738.15" y="424.22" transform="rotate(5.81 738.15 424.22)">🛁🧼</text>
  </g>
</svg>